
      <svg data-logo="logo" xmlns="http://www.w3.org/2000/svg" viewBox="0 0 263 43">
        <g id="logogram" transform="translate(0, 1) rotate(0) "><path d="M13.0832 0.429993L23.4173 9.25886C24.0309 9.78301 24.3845 10.5522 24.3845 11.3623V18.0162L14.0503 9.18733C13.4368 8.66319 13.0832 7.894 13.0832 7.08386V0.429993Z" fill="#7B19D8"/><path d="M13.0832 40.43L23.4173 31.6011C24.0309 31.077 24.3845 30.3078 24.3845 29.4977V22.8438L14.0503 31.6727C13.4368 32.1968 13.0832 32.966 13.0832 33.7761V40.43Z" fill="#7B19D8"/><path d="M0.754395 9.74034L10.948 18.4005C11.4422 18.8204 12.0681 19.0507 12.7147 19.0507H20.9354L10.7669 10.3925C10.2723 9.9714 9.64557 9.74034 8.99786 9.74034H0.754395Z" fill="#7B19D8"/><path d="M0.754395 31.1196L10.8853 22.4645C11.3804 22.0415 12.0086 21.8093 12.6578 21.8093H20.9599L10.7663 30.4694C10.2721 30.8893 9.64625 31.1196 8.99957 31.1196H0.754395Z" fill="#7B19D8"/><path d="M38.4256 0.429993L28.0914 9.25886C27.4779 9.78301 27.1243 10.5522 27.1243 11.3623V18.0162L37.4584 9.18733C38.072 8.66319 38.4256 7.894 38.4256 7.08386V0.429993Z" fill="#7B19D8"/><path d="M38.4256 40.43L28.0914 31.6011C27.4779 31.077 27.1243 30.3078 27.1243 29.4977V22.8438L37.4584 31.6727C38.072 32.1968 38.4256 32.966 38.4256 33.7761V40.43Z" fill="#7B19D8"/><path d="M50.7544 9.74034L40.5608 18.4005C40.0666 18.8204 39.4407 19.0507 38.7941 19.0507H30.5733L40.7419 10.3925C41.2364 9.9714 41.8632 9.74034 42.5109 9.74034H50.7544Z" fill="#7B19D8"/><path d="M50.7544 31.1196L40.6235 22.4645C40.1284 22.0415 39.5002 21.8093 38.851 21.8093H30.5489L40.7425 30.4694C41.2367 30.8893 41.8625 31.1196 42.5092 31.1196H50.7544Z" fill="#7B19D8"/></g>
        <g id="logotype" transform="translate(57, 8)"><path fill="#111111" d="M19.43 27.34L19.43 27.34Q16.05 27.34 13.37 25.80Q10.70 24.27 9.15 21.34Q7.61 18.42 7.61 14.29L7.61 14.29Q7.61 10.13 9.16 7.20Q10.72 4.27 13.40 2.73Q16.08 1.19 19.43 1.19L19.43 1.19Q21.60 1.19 23.47 1.80Q25.35 2.41 26.80 3.57Q28.25 4.73 29.17 6.42Q30.10 8.10 30.39 10.23L30.39 10.23L25.11 10.23Q24.94 9.19 24.45 8.38Q23.96 7.57 23.24 7.00Q22.51 6.42 21.57 6.12Q20.63 5.83 19.54 5.83L19.54 5.83Q17.55 5.83 16.05 6.82Q14.54 7.81 13.72 9.70Q12.90 11.58 12.90 14.29L12.90 14.29Q12.90 17.04 13.74 18.92Q14.58 20.80 16.07 21.75Q17.55 22.71 19.52 22.71L19.52 22.71Q20.61 22.71 21.54 22.41Q22.47 22.11 23.22 21.54Q23.96 20.97 24.45 20.15Q24.94 19.33 25.12 18.30L25.12 18.30L30.40 18.30Q30.20 20.06 29.35 21.69Q28.51 23.31 27.11 24.59Q25.70 25.87 23.77 26.61Q21.84 27.34 19.43 27.34ZM31.80 1.54L36.93 1.54L36.93 27L31.80 27L31.80 1.54ZM44.35 27.38L44.35 27.38Q42.53 27.38 41.09 26.74Q39.65 26.09 38.82 24.82Q37.99 23.55 37.99 21.65L37.99 21.65Q37.99 20.06 38.58 18.98Q39.17 17.91 40.18 17.26Q41.20 16.61 42.49 16.27Q43.78 15.93 45.20 15.79L45.20 15.79Q46.86 15.62 47.87 15.47Q48.89 15.33 49.36 15.01Q49.83 14.70 49.83 14.08L49.83 14.08L49.83 13.99Q49.83 13.17 49.49 12.61Q49.15 12.05 48.48 11.75Q47.81 11.45 46.84 11.45L46.84 11.45Q45.85 11.45 45.11 11.75Q44.38 12.05 43.92 12.54Q43.46 13.04 43.23 13.65L43.23 13.65L38.53 12.87Q39.03 11.21 40.18 10.05Q41.32 8.88 43.02 8.27Q44.72 7.65 46.84 7.65L46.84 7.65Q48.40 7.65 49.85 8.02Q51.30 8.39 52.45 9.16Q53.61 9.93 54.28 11.16Q54.96 12.39 54.96 14.13L54.96 14.13L54.96 27L50.10 27L50.10 24.35L49.93 24.35Q49.47 25.24 48.70 25.91Q47.93 26.59 46.85 26.98Q45.76 27.38 44.35 27.38ZM45.80 23.77L45.80 23.77Q47.01 23.77 47.93 23.29Q48.84 22.81 49.35 21.99Q49.87 21.17 49.87 20.16L49.87 20.16L49.87 18.10Q49.64 18.27 49.18 18.40Q48.72 18.54 48.16 18.64Q47.59 18.75 47.05 18.83Q46.50 18.92 46.07 18.97L46.07 18.97Q45.13 19.10 44.41 19.41Q43.70 19.72 43.30 20.22Q42.91 20.73 42.91 21.51L42.91 21.51Q42.91 22.25 43.29 22.75Q43.66 23.26 44.30 23.51Q44.94 23.77 45.80 23.77ZM64.65 27.38L64.65 27.38Q62.34 27.38 60.56 26.72Q58.78 26.06 57.66 24.80Q56.53 23.55 56.20 21.77L56.20 21.77L60.97 20.95Q61.35 22.28 62.29 22.95Q63.23 23.62 64.80 23.62L64.80 23.62Q66.25 23.62 67.11 23.06Q67.96 22.51 67.96 21.65L67.96 21.65Q67.96 20.90 67.35 20.42Q66.75 19.94 65.50 19.69L65.50 19.69L62.20 19.00Q59.43 18.44 58.07 17.08Q56.70 15.72 56.70 13.58L56.70 13.58Q56.70 11.74 57.71 10.41Q58.72 9.09 60.51 8.37Q62.30 7.65 64.73 7.65L64.73 7.65Q66.99 7.65 68.65 8.28Q70.30 8.90 71.33 10.05Q72.35 11.19 72.70 12.75L72.70 12.75L68.15 13.55Q67.86 12.58 67.03 11.95Q66.20 11.33 64.80 11.33L64.80 11.33Q63.54 11.33 62.68 11.86Q61.83 12.39 61.83 13.26L61.83 13.26Q61.83 13.99 62.38 14.49Q62.94 14.99 64.29 15.26L64.29 15.26L67.72 15.94Q70.49 16.51 71.84 17.78Q73.19 19.05 73.19 21.10L73.19 21.10Q73.19 22.98 72.10 24.39Q71.00 25.80 69.08 26.59Q67.16 27.38 64.65 27.38ZM81.97 27.38L81.97 27.38Q79.67 27.38 77.89 26.72Q76.11 26.06 74.98 24.80Q73.86 23.55 73.53 21.77L73.53 21.77L78.30 20.95Q78.67 22.28 79.61 22.95Q80.55 23.62 82.13 23.62L82.13 23.62Q83.58 23.62 84.43 23.06Q85.29 22.51 85.29 21.65L85.29 21.65Q85.29 20.90 84.68 20.42Q84.08 19.94 82.83 19.69L82.83 19.69L79.53 19.00Q76.76 18.44 75.39 17.08Q74.03 15.72 74.03 13.58L74.03 13.58Q74.03 11.74 75.03 10.41Q76.04 9.09 77.84 8.37Q79.63 7.65 82.06 7.65L82.06 7.65Q84.31 7.65 85.97 8.28Q87.63 8.90 88.66 10.05Q89.68 11.19 90.02 12.75L90.02 12.75L85.48 13.55Q85.19 12.58 84.36 11.95Q83.53 11.33 82.13 11.33L82.13 11.33Q80.86 11.33 80.01 11.86Q79.15 12.39 79.15 13.26L79.15 13.26Q79.15 13.99 79.71 14.49Q80.26 14.99 81.61 15.26L81.61 15.26L85.05 15.94Q87.82 16.51 89.17 17.78Q90.52 19.05 90.52 21.10L90.52 21.10Q90.52 22.98 89.42 24.39Q88.33 25.80 86.41 26.59Q84.49 27.38 81.97 27.38ZM96.84 27L91.71 27L91.71 7.89L96.84 7.89L96.84 27ZM94.28 5.40L94.28 5.40Q93.11 5.40 92.29 4.63Q91.47 3.86 91.47 2.77L91.47 2.77Q91.47 1.67 92.29 0.90Q93.11 0.13 94.28 0.13L94.28 0.13Q95.44 0.13 96.27 0.90Q97.10 1.66 97.10 2.77L97.10 2.77Q97.10 3.86 96.27 4.63Q95.44 5.40 94.28 5.40ZM107.47 27.38L107.47 27.38Q104.58 27.38 102.49 26.14Q100.39 24.90 99.26 22.68Q98.12 20.47 98.12 17.53L98.12 17.53Q98.12 14.56 99.26 12.35Q100.39 10.13 102.49 8.89Q104.58 7.65 107.47 7.65L107.47 7.65Q109.16 7.65 110.59 8.10Q112.03 8.54 113.14 9.36Q114.25 10.18 114.97 11.36Q115.69 12.54 115.96 14.01L115.96 14.01L111.19 14.90Q111.04 14.15 110.71 13.56Q110.39 12.97 109.93 12.55Q109.47 12.13 108.86 11.91Q108.25 11.69 107.52 11.69L107.52 11.69Q106.15 11.69 105.22 12.42Q104.29 13.16 103.82 14.47Q103.35 15.79 103.35 17.52L103.35 17.52Q103.35 19.22 103.82 20.53Q104.29 21.84 105.22 22.59Q106.15 23.34 107.52 23.34L107.52 23.34Q108.25 23.34 108.87 23.11Q109.48 22.88 109.96 22.45Q110.44 22.01 110.77 21.39Q111.09 20.78 111.23 20.01L111.23 20.01L116.00 20.88Q115.72 22.40 115.00 23.59Q114.29 24.78 113.18 25.63Q112.06 26.49 110.62 26.93Q109.18 27.38 107.47 27.38ZM128.11 27L117.36 27L117.36 1.54L127.46 1.54Q130.26 1.54 132.13 2.38Q134.01 3.23 134.94 4.70Q135.87 6.17 135.87 8.08L135.87 8.08Q135.87 9.59 135.27 10.70Q134.67 11.82 133.64 12.53Q132.60 13.24 131.29 13.55L131.29 13.55L131.29 13.81Q132.72 13.86 134.00 14.62Q135.27 15.38 136.06 16.74Q136.86 18.10 136.86 19.99L136.86 19.99Q136.86 21.99 135.87 23.58Q134.88 25.17 132.94 26.09Q131.00 27 128.11 27L128.11 27ZM122.57 15.81L122.57 22.71L127.08 22.71Q129.37 22.71 130.43 21.82Q131.49 20.93 131.49 19.50L131.49 19.50Q131.49 18.40 130.97 17.57Q130.45 16.75 129.49 16.28Q128.54 15.81 127.22 15.81L127.22 15.81L122.57 15.81ZM122.57 5.79L122.57 12.23L126.69 12.23Q127.80 12.23 128.69 11.83Q129.58 11.43 130.08 10.69Q130.59 9.94 130.59 8.92L130.59 8.92Q130.59 7.53 129.61 6.66Q128.62 5.79 126.79 5.79L126.79 5.79L122.57 5.79ZM143.25 27L138.12 27L138.12 7.89L143.08 7.89L143.08 11.23L143.28 11.23Q143.81 9.45 145.05 8.54Q146.29 7.64 147.90 7.64L147.90 7.64Q148.29 7.64 148.74 7.68Q149.20 7.72 149.56 7.81L149.56 7.81L149.56 12.39Q149.21 12.27 148.56 12.20Q147.91 12.13 147.33 12.13L147.33 12.13Q146.17 12.13 145.23 12.64Q144.29 13.14 143.77 14.04Q143.25 14.93 143.25 16.13L143.25 16.13L143.25 27ZM155.43 27.38L155.43 27.38Q153.62 27.38 152.18 26.74Q150.73 26.09 149.90 24.82Q149.07 23.55 149.07 21.65L149.07 21.65Q149.07 20.06 149.66 18.98Q150.25 17.91 151.27 17.26Q152.29 16.61 153.58 16.27Q154.87 15.93 156.29 15.79L156.29 15.79Q157.94 15.62 158.96 15.47Q159.98 15.33 160.45 15.01Q160.92 14.70 160.92 14.08L160.92 14.08L160.92 13.99Q160.92 13.17 160.58 12.61Q160.23 12.05 159.57 11.75Q158.90 11.45 157.93 11.45L157.93 11.45Q156.94 11.45 156.20 11.75Q155.47 12.05 155.00 12.54Q154.54 13.04 154.32 13.65L154.32 13.65L149.62 12.87Q150.12 11.21 151.26 10.05Q152.41 8.88 154.11 8.27Q155.81 7.65 157.93 7.65L157.93 7.65Q159.48 7.65 160.94 8.02Q162.39 8.39 163.54 9.16Q164.69 9.93 165.37 11.16Q166.05 12.39 166.05 14.13L166.05 14.13L166.05 27L161.19 27L161.19 24.35L161.02 24.35Q160.56 25.24 159.79 25.91Q159.02 26.59 157.94 26.98Q156.85 27.38 155.43 27.38ZM156.88 23.77L156.88 23.77Q158.10 23.77 159.01 23.29Q159.93 22.81 160.44 21.99Q160.95 21.17 160.95 20.16L160.95 20.16L160.95 18.10Q160.73 18.27 160.27 18.40Q159.81 18.54 159.24 18.64Q158.68 18.75 158.13 18.83Q157.59 18.92 157.16 18.97L157.16 18.97Q156.22 19.10 155.50 19.41Q154.78 19.72 154.39 20.22Q154.00 20.73 154.00 21.51L154.00 21.51Q154.00 22.25 154.37 22.75Q154.75 23.26 155.39 23.51Q156.03 23.77 156.88 23.77ZM173.27 15.94L173.27 15.94L173.27 27L168.15 27L168.15 7.89L172.98 7.89L173.07 12.66L172.76 12.66Q173.51 10.27 175.04 8.96Q176.57 7.65 179.00 7.65L179.00 7.65Q180.98 7.65 182.45 8.52Q183.92 9.38 184.74 11.00Q185.56 12.61 185.56 14.85L185.56 14.85L185.56 27L180.43 27L180.43 15.74Q180.43 13.96 179.52 12.95Q178.60 11.94 176.98 11.94L176.98 11.94Q175.90 11.94 175.06 12.41Q174.21 12.88 173.74 13.77Q173.27 14.66 173.27 15.94ZM194.65 27.32L194.65 27.32Q192.44 27.32 190.68 26.19Q188.91 25.05 187.88 22.86Q186.86 20.66 186.86 17.48L186.86 17.48Q186.86 14.22 187.92 12.03Q188.98 9.84 190.74 8.75Q192.50 7.65 194.62 7.65L194.62 7.65Q196.24 7.65 197.32 8.20Q198.39 8.75 199.06 9.55Q199.72 10.35 200.05 11.11L200.05 11.11L200.22 11.11L200.22 1.54L205.35 1.54L205.35 27L200.31 27L200.31 23.94L200.05 23.94Q199.71 24.71 199.03 25.49Q198.36 26.27 197.28 26.79Q196.20 27.32 194.65 27.32ZM196.22 23.21L196.22 23.21Q197.52 23.21 198.44 22.49Q199.37 21.77 199.84 20.48Q200.32 19.19 200.32 17.46L200.32 17.46Q200.32 15.72 199.85 14.45Q199.38 13.17 198.46 12.47Q197.54 11.76 196.22 11.76L196.22 11.76Q194.87 11.76 193.96 12.49Q193.04 13.23 192.58 14.51Q192.12 15.79 192.12 17.46L192.12 17.46Q192.12 19.14 192.59 20.44Q193.06 21.74 193.97 22.47Q194.89 23.21 196.22 23.21Z"/></g>
        
      </svg>
